# xmcd
#
# Track frame offsets:
#	150
#	21099
#	36144
#	56282
#	67519
#	76884
#	83579
#	88880
#	104599
#	126781
#	140813
#	154611
#	176721
#	185270
#	197258
#	203926
#	208272
#	212814
#	218839
#
# Disc length: 2938 seconds
#
# Revision: 1
# Processed by: cddbd v1.5.2PL0 Copyright (c) Steve Scherf et al.
# Submitted via: audiograbber 1.83.01
#
DISCID=070b7813
DTITLE=Various Artist - The Absolute Sound Reference For HiFi Show And At Home
DTITLE=Vol. 3
DYEAR=2017
DGENRE=Audiophile
TTITLE0=Basily Brothers - Gypsy Jazz
TTITLE1=Duo Opus - Flute Duo
TTITLE2=Barocco Loco - Mediaeval Music
TTITLE3=Prisma Ensemble - Stings Trio
TTITLE4=Renaissance Ensemble - Royal Music
TTITLE5=Renaissance Ensemble - Cent Mille
TTITLE6=Renaissance Ensemble - Thus Saith My Cloris Brite
TTITLE7=Hot Club de France - Gypsy Jazz
TTITLE8=Ralph Rousseau - Viola da Gamba solo
TTITLE9=Harmonie St. Oedenrode - Orange 1813 Mars
TTITLE10=Judith Jamin - Harp solo
TTITLE11=Michiel Ras - Organ
TTITLE12=Resonance Quartet - Das wohltemperierte Klavier
TTITLE13=Kamer Music Ensemble - Concert For Double Cello
TTITLE14=STS Sound Library - In The Lab From Dr. Akhbar
TTITLE15=STS Sound Library - Waiting For A Taxi
TTITLE16=STS Sound Library - Walking In The Forest
TTITLE17=STS Sound Library - To Ram A Pale In Amsterdam
TTITLE18=STS Sound Library - Walking In A Church
EXTD=
EXTT0=
EXTT1=
EXTT2=
EXTT3=
EXTT4=
EXTT5=
EXTT6=
EXTT7=
EXTT8=
EXTT9=
EXTT10=
EXTT11=
EXTT12=
EXTT13=
EXTT14=
EXTT15=
EXTT16=
EXTT17=
EXTT18=
PLAYORDER=
